<svg width="409" height="99" viewBox="0 0 409 99" fill="none" xmlns="http://www.w3.org/2000/svg">
<g clip-path="url(#clip0)">
<path d="M192.29 19.57H42.26C35.9142 19.57 30.77 24.712 30.77 31.055C30.77 37.398 35.9142 42.54 42.26 42.54H192.29C198.636 42.54 203.78 37.398 203.78 31.055C203.78 24.712 198.636 19.57 192.29 19.57Z" fill="#FBC9CC"/>
<path d="M272.79 47.36H145.14C138.794 47.36 133.65 52.502 133.65 58.845C133.65 65.188 138.794 70.33 145.14 70.33H272.79C279.136 70.33 284.28 65.188 284.28 58.845C284.28 52.502 279.136 47.36 272.79 47.36Z" fill="#FBC9CC"/>
<path d="M318.63 75.32H239.82C233.474 75.32 228.33 80.462 228.33 86.805C228.33 93.148 233.474 98.29 239.82 98.29H318.63C324.976 98.29 330.12 93.148 330.12 86.805C330.12 80.462 324.976 75.32 318.63 75.32Z" fill="#FBC9CC"/>
<path d="M53.24 61.33H17.28C10.9342 61.33 5.79 66.472 5.79 72.815C5.79 79.158 10.9342 84.3 17.28 84.3H53.24C59.5858 84.3 64.73 79.158 64.73 72.815C64.73 66.472 59.5858 61.33 53.24 61.33Z" fill="#FBC9CC"/>
<path d="M236.92 0C234.268 0 231.724 1.05359 229.849 2.92896C227.974 4.80432 226.92 7.34784 226.92 10V13C226.92 15.6522 227.974 18.1957 229.849 20.071C231.724 21.9464 234.268 23 236.92 23H389.35V0H236.92Z" fill="#FBC9CC"/>
<path d="M407.78 13V10C407.78 7.34784 406.726 4.80432 404.851 2.92896C402.976 1.05359 400.432 0 397.78 0H389V23H397.79C400.44 22.9973 402.981 21.9426 404.855 20.0675C406.728 18.1924 407.78 15.6504 407.78 13Z" fill="#FBC9CC"/>
</g>
<defs>
<clipPath id="clip0">
<rect width="408.35" height="98.29" fill="white"/>
</clipPath>
</defs>
</svg>
