<svg width="296" height="141" viewBox="0 0 296 141" fill="none" xmlns="http://www.w3.org/2000/svg">
<path d="M119.874 89.3475H27.3766C15.0518 89.4008 4.9808 79.5936 4.79698 67.3598C4.61414 55.126 14.385 45.0266 26.7068 44.715C27.5066 44.6927 28.2468 44.2918 28.6985 43.6366C29.1522 42.9805 29.2608 42.1506 28.9919 41.4022C24.0297 27.3058 31.4109 11.8689 45.5504 6.77212C59.6889 1.67535 75.3283 8.81627 80.6327 22.7895C80.8752 23.4378 81.3778 23.9552 82.0212 24.2192C82.6655 24.4832 83.39 24.4686 84.0217 24.1794C86.6392 22.971 89.4894 22.3449 92.3747 22.342C101.886 22.3595 110.077 29.0102 111.977 38.2623C112.249 39.6075 113.569 40.4772 114.922 40.2055C116.552 39.8813 118.21 39.7163 119.874 39.7143C133.682 39.7143 144.874 50.8261 144.874 64.5304C144.874 78.2367 133.682 89.3475 119.874 89.3475Z" fill="#F7F7F7"/>
<path d="M266.001 136.036H173.503C161.178 136.09 151.107 126.282 150.924 114.049C150.741 101.815 160.512 91.7153 172.833 91.4037C173.633 91.3814 174.373 90.9805 174.825 90.3254C175.279 89.6692 175.387 88.8393 175.118 88.091C170.156 73.9945 177.537 58.5576 191.677 53.4609C205.816 48.3641 221.455 55.505 226.759 69.4782C227.002 70.1266 227.504 70.6439 228.148 70.9079C228.792 71.1719 229.517 71.1574 230.148 70.8681C232.766 69.6597 235.616 69.0336 238.501 69.0307C248.013 69.0482 256.204 75.699 258.104 84.951C258.375 86.2963 259.695 87.166 261.049 86.8942C262.679 86.57 264.337 86.405 266.001 86.4031C279.808 86.4031 291.001 97.5148 291.001 111.219C291.001 124.925 279.808 136.036 266.001 136.036Z" fill="#F7F7F7"/>
</svg>
